<?xml version="1.0" encoding="utf-8"?>
<!-- Generator: Adobe Illustrator 25.4.1, SVG Export Plug-In . SVG Version: 6.00 Build 0)  -->
<svg version="1.1" id="Ebene_1" xmlns="http://www.w3.org/2000/svg" xmlns:xlink="http://www.w3.org/1999/xlink" x="0px" y="0px"
	 viewBox="0 0 293 395.2" style="enable-background:new 0 0 293 395.2;" xml:space="preserve">
<style type="text/css">
	.st0{fill:#1C1F26;}
	.st1{opacity:0.63;}
	.st2{opacity:0.67;}
	.st3{clip-path:url(#SVGID_00000150079741657111907300000008358031733685288359_);fill:#1C1F26;}
	.st4{clip-path:url(#SVGID_00000006675992121536479060000015566119345182287539_);fill:#1C1F26;}
	.st5{opacity:0.18;}
	.st6{opacity:0.21;}
</style>
<g id="Vektor-Smartobjekt_00000103984534596834789090000009985364563509020075_">
	<g>
		<g>
			<g>
				<g>
					<g>
						<g>
							<path class="st0" d="M130.4,344.8c-6.6,11.7,5.3,29.7,14.7,38.6c7.1,6.7,14.8,10.1,20.1,11.8c3.7-2.6,8.3-6.4,12.7-11.7
								c3.6-4.4,6.1-8.6,7.8-12.1c3.2-4.6,9.8-15.6,5.2-24.8c0,0-0.5-1.1-1.2-2.1C181.5,333.3,139.8,328.1,130.4,344.8"/>
						</g>
						<g>
							<path class="st0" d="M116.3,168c-0.3,5.2-0.4,7.7-0.5,8.8c-0.7,8.2-2.6,20.7-7.4,35c-1.3,3.9-2.6,7.1-3.4,9
								c-6.3,7.3-12.7,14.6-19,21.9c1.9,4.2,3.9,8.5,6.1,12.9c5.4,10.9,11,20.9,16.7,30.1c7.4,1.6,15.5,3,24.1,4.2
								c10.2,1.3,19.7,2.1,28.4,2.4c4.1-0.4,8.1-0.7,12.2-1.1c4.9-1.3,9.8-2.5,14.7-3.8c3.9-0.5,7.9-1,11.8-1.5c2.6-2,5.1-4,7.7-5.9
								c10-13,19.9-26,29.9-39.1c-2.3-0.2-5.2-0.2-8.4,0.1c-3.7,0.4-6.8,1.3-9.2,2.1c0.9-9,1.7-18,2.6-26.9
								c-3.6,1.1-7.1,2.2-10.7,3.3c-0.2-13.7-0.4-27.3-0.6-41c-7,6.4-13.9,12.8-20.9,19.2c-5-17.7-9.9-35.4-14.9-53.2
								c-6.2,3.5-15.8,8.2-28.4,10.8c-12.3,2.6-22.9,2.4-30,1.7C116.8,159.6,116.6,163.4,116.3,168"/>
						</g>
						<g>
							<g class="st1">
								<g>
									<g>
										<path class="st0" d="M165.2,395.2c3.5-5,8.2-12.9,10.8-23.4c1.9-7.5,2.2-14.2,2-19.2c5.2-0.9,10.4-1.7,15.7-2.6
											c-0.7,5.3-2.4,12.6-6.5,20.5C180.5,383.6,170.8,391.4,165.2,395.2"/>
									</g>
								</g>
							</g>
						</g>
						<g>
							<g class="st1">
								<g>
									<g>
										<path class="st0" d="M142.3,349.1c5.8,4.3,3.7,12.5,6.5,22.5c1.7,6.1,5.7,14.6,16.4,23.7c-2.1-0.7-4.8-1.7-7.9-3.3
											c-3.1-1.6-12.2-6.6-19.8-16.9c-3.2-4.3-7.8-10.7-9.1-20.1c-0.4-3-0.4-5.6-0.2-7.4C132.2,346.6,138.2,346,142.3,349.1"/>
									</g>
								</g>
							</g>
						</g>
						<g>
							<path class="st0" d="M125.5,295.5c-2,3.6,7.6,12.7,10.2,23.1c0.4,1.4,0.8,3.8,0.2,6.6c-0.6,2.8-2,4.5-3.2,6.4
								c-2.5,3.7-7,10.2-6,15.5c0.7,3.7,3.9,6,6.4,7.7c15,10.3,35.5,4.9,55.9-0.4c0.9-0.2,2.8-0.8,4.4-2.4c2.9-3,2.3-7.5,2-9.1
								c-0.8-5.2-3.3-6-7.4-13.7c-2.9-5.3-4.7-8.8-4.6-13.5c0.1-4.7,2.1-8.4,3.6-11c3.8-7,7.7-8.6,7-10.1c-1.3-3.1-16.3,3.2-36.5,3
								C139.2,297.3,127.4,291.9,125.5,295.5"/>
						</g>
						<g>
							<g class="st2">
								<g>
									<g>
										<defs>
											<rect id="SVGID_1_" x="135.6" y="314.9" width="47.8" height="6"/>
										</defs>
										<use xlink:href="#SVGID_1_"  style="overflow:visible;fill:#1C1F26;"/>
										<clipPath id="SVGID_00000137825224173388121580000003922195126368770739_">
											<use xlink:href="#SVGID_1_"  style="overflow:visible;"/>
										</clipPath>
										<path style="clip-path:url(#SVGID_00000137825224173388121580000003922195126368770739_);fill:#1C1F26;" d="M135.6,318.3
											c6.8,1,15.7,1.6,26.1,0.8c8.6-0.8,15.9-2.4,21.8-4.1c0,0.3,0,0.5,0,0.8c0,0.3,0,0.7,0,1c-6.3,1.7-14,3.2-23,3.9
											c-9.4,0.7-17.7,0.3-24.3-0.4c-0.1-0.3-0.1-0.6-0.2-0.9C135.8,318.9,135.7,318.6,135.6,318.3"/>
									</g>
								</g>
							</g>
						</g>
						<g>
							<g class="st2">
								<g>
									<g>
										<defs>
											<rect id="SVGID_00000052785498713564858520000005183694582787722392_" x="136.2" y="318.6" width="47.8" height="6"/>
										</defs>
										<use xlink:href="#SVGID_00000052785498713564858520000005183694582787722392_"  style="overflow:visible;fill:#1C1F26;"/>
										<clipPath id="SVGID_00000125579753917388313920000002524686409688315567_">
											<use xlink:href="#SVGID_00000052785498713564858520000005183694582787722392_"  style="overflow:visible;"/>
										</clipPath>
										<path style="clip-path:url(#SVGID_00000125579753917388313920000002524686409688315567_);fill:#1C1F26;" d="M136.2,321.9
											c6.7,1,15.6,1.6,25.8,0.7c8.5-0.7,15.8-2.4,21.5-4c0,0.3,0.1,0.5,0.2,0.8c0.1,0.3,0.1,0.6,0.2,0.9
											c-6.3,1.7-14.1,3.2-23.2,3.9c-9.5,0.7-17.9,0.3-24.6-0.5c0-0.3,0-0.5,0.1-0.8C136.2,322.5,136.2,322.2,136.2,321.9"/>
									</g>
								</g>
							</g>
						</g>
						<g>
							<g class="st5">
								<g>
									<g>
										<path class="st0" d="M140.7,303.5c4.6,5.9,5.9,11.1,6.3,14.2c1.2,9-2.6,18.9-3.7,21.9c-1.7,4.4-3,6.3-2.6,9.8
											c0.5,4.7,3.6,8.3,6.2,10.7c-3.3-0.4-5.8-1.2-7.5-1.9c-5.5-2.1-11.4-6.2-12.4-10.2c-0.5-2-0.3-4-0.3-4
											c0.1-0.4,0.2-1.2,0.6-2.6c0.2-0.7,1-3,2.9-6c0.6-1.1,1.7-2.7,2.9-4.3c0.4-0.6,0.7-1,1.1-1.6c0.2-0.3,1.1-1.9,1.6-3.4
											c1-3.1,0.3-6-0.2-7.9c-0.4-1.6-0.9-2.8-1.2-3.6c-1.1-2.5-3-6.4-6.3-11.5C132.2,303.3,136.4,303.4,140.7,303.5"/>
									</g>
								</g>
							</g>
						</g>
						<g>
							<g class="st6">
								<g>
									<g>
										<path class="st0" d="M178.1,357.2c5.4-1.4,9.3-2.4,10.8-2.8c0.2-0.1,0.8-0.2,1.5-0.5c0.5-0.2,1.3-0.5,2.2-1.3
											c0.2-0.2,1.2-0.9,1.9-2.3s0.9-2.6,1-3.8c0.2-2.5-0.2-4.4-0.4-5.1c-0.5-1.9-1.4-3.3-2.2-4.5c-0.6-1-0.8-1.1-1.9-2.8
											c-1-1.4-1.6-2.6-2.1-3.3c-2-3.4-3.2-6-3.7-7c-0.6-1.4-0.9-2.2-1.2-3.1c-0.5-1.7-0.6-3-0.6-3.3c0-0.1-0.1-1.5,0-3
											c0.1-1.3,0.6-3.8,2.4-7.6c1-2.1,2.8-5.1,5.6-8.4c-2.1-4.1-7.2-6.1-11.8-4.7c-4.5,1.4-7.3,5.8-6.5,10.2
											c-1.8,6.7-1.8,12.2-1.5,15.8c0.7,7.9,3.4,14.6,4.6,17.1c1.5,3.3,2.2,4,2.8,6.4C180.5,348.7,179.4,353.7,178.1,357.2"/>
									</g>
								</g>
							</g>
						</g>
						<g>
							<g class="st1">
								<g>
									<g>
										<path class="st0" d="M177.7,153.3c4.2,14.8,8.4,29.7,12.6,44.5c7-6.4,13.9-12.8,20.9-19.2c0.2,13.7,0.4,27.3,0.6,41
											c3.6-1.1,7.1-2.2,10.7-3.3c-0.9,9-1.7,18-2.6,26.9c2.4-0.8,5.3-1.5,8.7-2c3.5-0.5,6.6-0.6,9.1-0.5
											c-7.6,10.1-15.2,20.1-22.9,30.2c-1.1,0.3-2.1,0.7-3.2,1l-4.7,6.4c-4.4-1.5-8.8-3-13.1-4.5c7.6-7.1,15.3-14.2,22.9-21.4
											c-3.4-0.1-6.8-0.2-10.2-0.3c1.6-5.8,3.3-11.6,4.9-17.4c-3.2,1.7-6.3,3.3-9.5,5c-0.4-9.9-0.9-19.9-1.3-29.8
											c-5.8,6.1-11.6,12.2-17.4,18.3c-5.7-22.5-11.3-45-17-67.5C170,158.3,173.8,155.8,177.7,153.3"/>
									</g>
								</g>
							</g>
						</g>
						<g>
							<path class="st0" d="M128.3,164.3c-0.5,11.2-1.1,22.4-1.6,33.5c-3.2,8.8-6.4,17.6-9.6,26.4c-4.8,6.6-9.5,13.1-14.3,19.7
								c9.2,14.6,18.4,29.2,27.6,43.8c-4.5-0.5-9.2-1.1-14.1-1.9c-3-0.5-5.9-1.1-8.7-1.6c-4-6.5-8-13.5-11.9-21.1
								c-3.7-7-6.9-13.8-9.8-20.3c6.3-7.3,12.7-14.6,19-21.9c2.8-6.7,5.5-14.6,7.6-23.6c1.5-6.5,2.5-12.5,3-18
								C119.8,174.3,124,169.3,128.3,164.3"/>
						</g>
						<g>
							<path class="st0" d="M292.6,205.5c-2.9-20.3-17-37.5-17-37.5c-5-6.2-10.2-10.6-14-13.5l-1.5-8.6c-3.1,0.7-6.2,1.4-9.2,2.2
								c0.3-4.8,0.6-9.7,0.9-14.5c-4.6,2.6-9.2,5.1-13.9,7.7c-1.5-2.8-3.1-5.6-4.6-8.4c-3.4,1.6-6.9,3.1-10.3,4.6
								c-16.4-5.9-50.8-15.8-93.6-9.3c-59.5,9-95.8,43.6-106.9,55l-10.7,2.6c1,3.5,1.9,7,2.9,10.5c-4.9,1.5-9.7,3.1-14.6,4.6
								c2.6,4.2,5.1,8.4,7.7,12.5c-2.2,2.2-4.3,4.5-6.5,6.7c2.8,2.4,5.6,4.9,8.4,7.3c0.7,5.3,2.3,12.7,6.5,20.6
								c11.6,22.4,34,31.8,52.7,39.9c35.6,15.4,69.6,17.2,92.2,16.2c4.6,1.2,9.1,2.4,13.7,3.7c3.3-3.8,6.6-7.5,9.9-11.3l17,6.4
								c2.8-3.6,5.6-7.1,8.4-10.7c4.4,0.7,8.7,1.4,13.1,2.1l4.1-8.3C271.4,266.6,296.4,231.3,292.6,205.5 M159.9,289.2
								c-16.2,0.1-54.8-1.1-88.6-16.9c-21.7-10.1-29.7-20.8-32.8-25.5c-5.1-7.8-7.3-15.3-8.3-20.4c3.4-1.5,6.9-3,10.3-4.4
								c-2.2-2.4-4.5-4.7-6.7-7.1c4.9-1.7,9.7-3.5,14.6-5.2c-3.2-3.3-6.3-6.6-9.5-9.9c3-1,6.1-2,9.1-3.1c-1.1-2.5-2.2-5-3.3-7.6
								c11.1-10.6,47.6-43,104.4-47.6c29.3-2.4,53.3,3.5,68,8.5c0.1,2.9,0.1,5.9,0.2,8.8l12.5-3.7c-1,4.7-2,9.5-2.9,14.2
								c5.1-2.3,10.2-4.6,15.2-7c0.9,3,1.8,6,2.7,9.1c3.1-1.6,6.2-3.3,9.4-4.9c5,4.5,19.9,19,21.1,40.2c1.4,27.2-20.3,54.5-54.4,65
								c-3.1-0.4-6.1-0.8-9.2-1.2c-1.6,2.5-3.2,5.1-4.7,7.6c-5.4-2.1-10.9-4.2-16.3-6.3c-2.9,4.5-5.7,8.9-8.6,13.3
								c-3.9-1.3-7.7-2.7-11.6-4C166.8,283.9,163.3,286.5,159.9,289.2"/>
						</g>
						<g>
							<g class="st2">
								<g>
									<g>
										<path class="st0" d="M274.3,177.1c-15.2-23.5-39.7-31.8-57.7-37.9c-47.5-16.1-89.6-7-97-5.3
											c-35.9,8.3-96.9,34.2-103.3,77.6c-2.3,15.9,3.4,29.2,5.3,33.2c11.1,23.8,35.3,33.8,53.4,41c13.6,5.4,61.5,23.6,118.7,5.9
											c4.5-1.4,90.2-28.9,92.2-78.9C286.5,196,277.6,182.2,274.3,177.1 M282.3,212.8c-2,48.7-85.4,75.4-89.8,76.8
											c-55.7,17.2-102.3-0.5-115.5-5.7c-17.6-7-41.2-16.7-52-39.9c-1.8-3.9-7.4-16.9-5.1-32.3c6.2-42.2,65.6-67.5,100.5-75.5
											c7.2-1.7,48.2-10.5,94.5,5.1c17.5,5.9,41.4,14,56.2,36.9C274.2,183,282.9,196.5,282.3,212.8"/>
									</g>
								</g>
							</g>
						</g>
						<g>
							<g class="st2">
								<g>
									<g>
										<path class="st0" d="M271,178.1c-14.8-22.9-38.7-30.9-56.2-36.9c-46.3-15.7-87.2-6.8-94.5-5.1c-35,8-94.3,33.3-100.5,75.5
											c-2.3,15.5,3.3,28.5,5.1,32.3c10.8,23.2,34.4,32.9,52,39.9c13.2,5.2,59.8,22.9,115.5,5.7c4.4-1.3,87.8-28.1,89.8-76.8
											C282.9,196.5,274.2,183,271,178.1 M278.8,212.8c-1.9,47.4-83.1,73.5-87.4,74.8c-54.2,16.7-99.6-0.5-112.5-5.6
											c-17.2-6.8-40.1-16.3-50.6-38.8c-1.8-3.8-7.2-16.4-5-31.5c6-41.1,63.8-65.7,97.9-73.5c7-1.6,46.9-10.2,92,5
											c17.1,5.8,40.3,13.6,54.7,35.9C271,183.9,279.4,196.9,278.8,212.8"/>
									</g>
								</g>
							</g>
						</g>
						<g>
							<path class="st0" d="M175.3,154c0.2-2.3,0.4-4.7,0.6-7c-4.9-17.5-9.9-35-14.8-52.5c-12.5,5.7-22.7,8.3-26.9,8
								c-4-0.3-7.8-1.1-11.4-2.4c-2.9,26.1-5,46.3-6,59.1c9.6-0.7,19.8-1.1,30.5-1.2c6.4,0,12.6,0.1,18.6,0.3
								C169.1,156.8,172.2,155.4,175.3,154"/>
						</g>
						<g>
							<path class="st0" d="M134.4,0c-2.1,56.4-4.2,112.8-6.3,169.2c-4.1,2.1-8.2,4.2-12.3,6.3c0.3-4.9,0.7-12.1,1.3-20.7
								c2.2-30.2,4.9-51.8,7.6-73.1C127,63.3,130.3,35.8,134.4,0"/>
						</g>
						<g>
							<path class="st0" d="M220.4,75.5c-13.9-21-60.8-16.8-104.8,9.2S47.4,149,61.3,170c13.9,21,60.8,16.8,104.8-9.2
								S234.3,96.5,220.4,75.5 M161,153.5c-35.5,21.1-73.4,24.5-84.7,7.5c-11.3-17,8.4-47.9,43.9-69c35.5-21.1,73.4-24.5,84.7-7.5
								C216.2,101.6,196.5,132.4,161,153.5"/>
						</g>
						<g>
							<path class="st0" d="M134.4,0c-4.6,38.9-8.6,72.7-11.6,100c3.6,1.3,7.4,2.2,11.4,2.4c9.7,0.6,19-2.4,26.9-8
								C152.2,63,143.3,31.5,134.4,0"/>
						</g>
						<g>
							<path class="st0" d="M134.4,0c-0.8,33.9-2,68.4-3.7,103.4c-0.9,19.1-2,38-3.1,56.8c-3.2,1.4-6.3,2.8-9.5,4.2
								c0.4-3.1,0.9-6.3,1.3-9.5c-0.1-7.3-0.3-14.6-0.4-21.9c1.9-17.1,3.8-34.2,5.7-51.3C127.8,54.4,131,27.2,134.4,0"/>
						</g>
						<g>
							<g class="st1">
								<g>
									<g>
										<path class="st0" d="M134.4,0c9.9,50.6,19.7,101.2,29.6,151.8c2-1.3,4.1-2.6,6.2-4.1c1.7-1.2,3.4-2.4,4.9-3.6L134.4,0"/>
									</g>
								</g>
							</g>
						</g>
					</g>
				</g>
			</g>
		</g>
	</g>
</g>
</svg>
