<?xml version="1.0" encoding="utf-8"?>
<!-- Generator: Adobe Illustrator 25.4.1, SVG Export Plug-In . SVG Version: 6.00 Build 0)  -->
<svg version="1.1" id="Ebene_1" xmlns="http://www.w3.org/2000/svg" xmlns:xlink="http://www.w3.org/1999/xlink" x="0px" y="0px"
	 viewBox="0 0 1955 611" style="enable-background:new 0 0 1955 611;" xml:space="preserve">
<style type="text/css">
	.st0{fill:none;}
</style>
<path class="st1" d="M1954.8,31.9c-8.9,3.4-17.7,6.9-26.6,10.3c1.2,1.9,2.5,3.8,3.8,5.7c3.1,28.5,6.1,57.1,9.2,85.7
	c-5.6,2.4-11.1,4.9-16.7,7.3c1.3,15.1,2.5,30.1,3.8,45.2v7.3c-2.5-0.2-5-0.5-7.5-0.7c-6.1,2.1-12.2,4.2-18.3,6.3
	c0.6,3.1,1.1,6.1,1.7,9.2c3.2,2.9,6.4,5.8,9.7,8.7c0.1,13.4,0.8,27.7,2.1,42.8c0.9,10.4,2.1,20.4,3.5,29.9l-8.9-1.9
	c-6.7,1.6-13.5,3.1-20.2,4.7c0.3,3.3,0.6,6.6,0.9,9.9c3.1,2.7,6.1,5.5,9.2,8.2c0.7,9.9,1.4,19.8,2.1,29.7c-2.6-0.4-5.8-0.7-9.4-0.5
	c-4.5,0.2-8.2,1.1-11.1,2v-7.1c-19-2.3-38-4.7-56.9-7.1c-2-29.6-4.1-59.3-6.1-88.9c-3.4-0.8-6.9-1.6-10.3-2.3
	c-3.1,1.3-6.3,2.5-9.4,3.8c-7.2-1.4-14.4-2.8-21.7-4.2c-0.3-2.4-0.6-4.7-0.9-7.1l-12.2-1.9l-12.7,3.3v7.1l-38.1,12.7
	c-3.3-0.8-6.6-1.6-9.9-2.4c-4.6,1.6-9.1,3.1-13.7,4.7c2,32,4.1,64,6.1,96l-102.8,32.5c1.2,26.5,2.3,52.9,3.5,79.4
	c-1.3,0.3-3.3,0.9-5.3,2.5c-3.8,2.9-4.8,6.9-5.1,8.2v14.9h-16.8v-7.5c-1.7-0.7-4-1.3-6.7-1.5c-6.9-0.4-12,2.9-14,4.2v9.9H1538v-9.4
	h-19.4c-0.4-7.5-0.8-14.9-1.2-22.4c-0.3-0.8-1.5-3.1-4.1-4.5c-1.4-0.7-2.7-0.9-3.5-0.9c-3.1-57.7-6.2-115.4-9.3-173.1
	c-5.7-0.3-11.3-0.6-16.9-0.9c-0.5-6-0.9-12.1-1.4-18.1c-33.1-1.7-66.3-3.5-99.4-5.2l-39.2,30.8l-3.8-66.2c-3.1-4.5-8.1-6.9-13.1-6.4
	c-4.7,0.5-7.7,3.7-8.5,4.6c-1.2-0.8-6.7-4.1-14-2.7c-7.4,1.3-11.4,6.4-12.3,7.6c-0.3-0.2-0.9-0.5-1.8-0.6c-1.5-0.1-2.5,0.6-2.8,0.8
	c-0.4,15.4-0.5,31.3-0.2,47.8c0.3,19.1,1,37.5,2.1,55.2c-0.8,0.8-1.7,1.6-2.5,2.3c-1.3-0.2-4.6-0.7-8,1.1c-1.2,0.6-2.2,1.4-2.8,2.1
	c0,25.9,0.1,51.9,0.1,77.8c-2,0.5-5.5,1.6-5.6,3.2v0.1c0,32,0,64.1,0,96.1c-5.1,0.5-10.2,1-15.3,1.6v21.8h-2.2v-34.2
	c-1.1-5.4-2.2-10.8-3.3-16.1c-2.9-0.1-5.9-0.2-8.8-0.4c-5.5-10.2-7.6-18.8-8.4-24.6c-1.9-12.9,0.4-22.7-6.4-31.6
	c-2.4-3.1-5-5-6.7-6.1c0.1-0.5,0.9-3.4-0.8-5.8c-0.6-0.8-1.3-1.3-1.9-1.6c0.2-0.7,0.9-3.9-0.9-6.6c-0.5-0.7-1-1.2-1.5-1.5
	c-2.3-26.7-4.7-53.5-7.1-80.2c-0.8,26.9-1.6,53.8-2.3,80.7c-0.4,0.4-0.9,1-1.3,1.8c-1.3,2.4-0.8,4.9-0.6,5.8c-0.5,0.3-1,0.7-1.4,1.3
	c-2,2.5-1.2,5.8-1,6.4c-1.4,1.3-3.3,3.2-5,6.1c-3.5,5.8-3,10.1-3.9,22.1c-1.3,17.2-3.6,24-4.8,27.1c-1.3,3.4-2.6,6.2-3.6,8h-6.9
	c-0.3-4.9-0.6-9.8-0.9-14.7h-1.3l-0.6-17.2h-6.3c-0.3-6.6-0.7-13.2-1.1-19.8H1123c-2.3,2.4-4.7,4.9-7.1,7.3c0,5,0.1,10,0.1,15.1
	c-2.3,2.1-4.6,4.2-6.9,6.3c-0.5,12.4-0.9,24.9-1.4,37.3l-7.5,6.3l-0.5,53.3c-1.2,0.7-2.3,1.5-3.5,2.2c-5.9-6.4-11.8-12.9-17.8-19.3
	c-0.6-29.4-1.3-58.8-1.9-88.2c-0.7-5.8-4.8-9.5-8.6-9.3c-2.9,0.2-4.8,2.7-5.3,3.3c-2.1-1.6-6.7-4.7-13.4-5.7
	c-7.7-1.1-13.6,1.3-16,2.3c0.7-4.1,1.8-10.8,3.8-18.8c4.9-20.6,10.9-33.8,14.6-43.1c15.7-39.5,19.2-81.9,14.8-102.1
	c-0.3-1.4-1.9-8.5-4.2-19.5c-2-9.5-3.6-17.3-4.7-22.6c-1.3,2.8-3,7.2-3.3,12.8c-0.4,6.6,1.3,11.1,2.4,14.8
	c4.4,15.5,1.6,30.6-1.2,44.7c-1.2,6-2.4,10.3-3.8,14.8c-1.6,5.5-6.2,19.9-15.3,37.4c-5.9,11.2-12.9,24.7-25.9,38.8
	c-11.5,12.5-14.6,11.3-27.5,26.1c-16.2,18.6-17.2,27.1-16.8,32.1c0.4,5.8,2.8,9.8,7.1,17.1c5.3,9,11.5,14.9,22.1,24.8
	c4.8,4.5,9,8.1,11.8,10.5v9.9h-8.5v8.2c-2.3,0.3-4.7,0.5-7,0.8c-0.4,2.5-0.8,4.9-1.1,7.4h-9.7v9c-2.3-0.5-5.1-0.8-8.3-0.9
	c-3.7,0-7,0.4-9.5,0.9v2.7c-0.88,0.08-1.99,0.26-3.2,0.7c-2.34,0.85-3.92,2.21-4.8,3.1c-0.67,3.3-1.33,6.6-2,9.9
	c-6.77,0-13.53,0-20.3,0v4h-3.2v-46.8c1.2-0.6,3.8-2,5.7-5.1c2.8-4.8,1.5-9.7,1.2-10.6c-4.3-0.1-8.6-0.1-12.9-0.2v-46.9
	c1-0.7,2.5-2.1,3.7-4.2c1.9-3.5,1.7-6.8,1.5-8.1h-14.4v-14.1c0.8-0.9,1.9-2.3,2.8-4.2c0.9-2,1.3-3.8,1.4-5.1h-11.6v-34.1
	c0.9-1.5,1.7-2.8,2.3-4.1c0.8-1.5,0.9-1.9,0.8-2.3c-0.4-1.5-2.9-2-4.5-2.4c-1.3-0.3-3.3-0.6-5.8-0.2v-25h-3.4v-16.9l-1.9-1.9v-25.3
	c-2.1-1-4.7-2.1-7.7-2.9c-2.8-0.8-5.4-1.2-7.6-1.4v-7.2c-0.1-0.5-0.5-1.5-1.4-2.5c-1.1-1.1-2.3-1.4-2.8-1.5v-8.2
	c-0.7-0.4-1.4-0.8-2.1-1.3c-0.4-6.5-0.8-13-1.2-19.5c-0.3,6.5-0.6,12.9-0.9,19.4c-0.7,0.5-1.5,0.9-2.2,1.4v8.2
	c-0.7,0.2-1.8,0.6-3,1.5c-1.1,0.8-1.8,1.7-2.3,2.4v7.3c-2.3,0.4-5,1.1-7.9,2.2c-2.4,0.9-4.4,1.9-6.2,2.9v26.8h-3.2v17.1l-3.1,1.5
	c0,8.9,0,17.8-0.1,26.7c-5.2-2-9.3-1.5-10.1,0.2c-0.9,2,2.7,5.5,2.8,5.7v31.8c-11.2-19.3-25.7-51.6-25.1-91.4
	c0.2-9.1,0.5-22.4,5.7-38.8c6.6-20.9,14.6-26.3,40.6-63.5c18.6-26.7,27.9-40.1,35.7-58.2c7-16.4,13.2-36.8,16.2-46.6
	c1.9-6.1,6.3-20.4,8.8-31.4c3.9-16.9,7.6-43.7,2.5-80.3c-0.2,9.4-0.8,22.2-2.8,37.3c-2.3,16.9-5.3,38.6-15.9,63.9
	c-6,14.2-19.7,46.9-47.3,66.3c-10,7-21.2,13.1-21.2,13.1c-12.5,6.7-18.2,8.2-31.4,15.2c-1,0.5-11.2,5.9-21.5,12.7
	c-18.2,12-39.5,26-50.8,50.8c-6.3,13.8-6.3,25.8-6.3,28.6c-0.1,9.8,1.9,19.2,7.9,33.4c11.1,26.2,20,31.1,38,62.2
	c9,15.7,7.2,15.4,18.7,36c10.2,18.4,20.7,35.2,31.1,50.5c0.1,7.4,0.2,14.7,0.3,22.1c0.3,2.4,0.5,4.9,0.8,7.3
	c-1.2-0.6-3.5-1.6-6.5-1.6c-1.8,0-4.1-0.1-5.3,1.2c-1.9,1.9-1.1,6.7,2.4,11.6v40.2h-6.1v6.3c-1.8,0.4-3.5,0.8-5.3,1.2v-8.1h-15.4
	c0.1,3.7,0.2,7.3,0.3,11c-4.2,0.1-8.3,0.2-12.4,0.3c0-4.5,0.1-9.1,0.1-13.7c1.4,0,2.5-1.1,2.5-2.5s-1.2-2.5-2.6-2.5
	c-0.1-10.2-0.2-20.4-0.3-30.6c0.6-4.1-2.4-7.3-5.2-7.3c-2.6,0-5.5,3-5.2,6.8c-0.6-0.8-9-12.5-23.3-11.9c-11.3,0.5-18.1,8.2-19.3,9.5
	h-2.5c-1.4-1.6-7.4-7.9-16.9-8.7c-9.3-0.8-18.4,4-23.9,12.2v28.4h-3.2c-0.5,0.4-1.2,1.1-1.2,1.9c0,1,1,1.4,1.7,2.4
	c0.5,0.7,0.9,2,0.6,4v10.7c-1.6-0.8-5-2.1-9.3-1.6c-1.9,0.2-3.4,0.8-4.6,1.3v8.4l-1.5-1.5v-14.1h-8v9.9l-3.8-3.7
	c0-8.1-0.1-16.1-0.1-24.2c-4.6-0.4-9.3-0.9-13.9-1.3c0.7-20.1,1.4-40.2,2.1-60.4c-0.9-1-2.5-2.4-5-3.5c-2.1-1-4-1.2-5.3-1.3v-52.4
	h-2.2c-0.2-3.4-0.5-6.9-0.7-10.3c-0.2,3.5-0.4,7-0.6,10.5l-2.2,0.6c0.8-34.3,1.6-68.6,2.4-102.8c0.7-0.7,1.4-1.4,2.2-2.2v-11
	c-1.1-0.6-2.1-1.3-3.2-1.9h-5.2v1.6c-1.9,0.7-4.5,1.3-7.6,1.5c-4.7,0.3-8.6-0.7-10.9-1.5v-23.4c-1.3-0.1-3.6-0.5-6-2
	c-2.2-1.4-3.6-3-4.3-4.1V252c-0.6-0.9-1.6-2.2-3.1-3.3c-1.5-1.2-3-2-4.1-2.4v-92.6h2c-0.6-1.8-2.2-3-4.1-3c-1.8,0-3.5,1.2-4.1,3h1.8
	v3.6l-5.2-5.2h-16.2v-27.2c-2.3-1.6-9.4-6.3-19.5-6c-9.3,0.2-15.7,4.4-18.1,6v9.5H498c-1.5-2-2.9-3.9-4.4-5.9h-4.7v11.9
	c-0.3,0.5-4.5,6.5-1.9,13.5c2.1,5.7,7.3,7.9,8.1,8.2c0.4,2.7,0.7,5.7,0.8,9.1c0.1,5-0.2,9.4-0.8,13.1H485v-11.4
	c-0.6-0.4-2.4-1.6-5-1.6c-2.7,0-4.6,1.2-5.3,1.6v43c-2.4-0.1-6.4,0.1-10.7,2.1c-1.9,0.9-3.5,2-4.7,2.9v2.5c-3.8,0-6.7-0.5-8.7-1
	c-3-0.7-6.1-1.8-11-2.1c-0.6,0-1,0-1.3,0v3c1.1,0.6,2.7,1.4,4.9,2.2c4.7,1.7,6.8,1.3,9,3c1.3,1,2.9,2.7,3.7,6.4
	c0,0.9,0.1,1.8,0.1,2.6h-1v2.7c1,0.7,2.1,1.3,3.1,2v24c-2.3,0.3-5.7,1.1-9.3,3.1c-2.6,1.4-4.5,3.1-5.9,4.4h-14.8
	c0.3,0.4,1.8,3.2,0.8,6.3c-0.2,0.5-1.2,3.3-3.6,4.2c-1.4,0.5-2.6,0.1-3.4,1.2c-0.6,0.8-0.6,1.8-0.5,1.9c0.1,1.6,1.5,2.4,1.6,2.5
	c-0.5,13.3-1,26.7-1.5,40.1c-3.6,0.4-7.8,1.1-12.3,2.4c-3.6,1-6.9,2.2-9.6,3.4v-2.5h-1.5c-1,2.5-1.9,5.3-2.7,8.3
	c-1.7,6.3-2.5,12.1-2.8,17.2v7.9c0.9,0.1,2,0.3,3.3,0.8c1.7,0.7,2.9,1.6,3.6,2.3c0.4,3,0.7,6.2,0.8,9.6c0.2,6.5-0.1,12.3-0.8,17.3
	l-20.6,1.1v1.7c4.6-0.1,9.9,0.3,15.6,1.6c1.3,0.3,2.6,0.6,3.8,1v7.1c-4.2,0.8-8.4,1.6-12.7,2.4c4.1,1.2,8.2,2.4,12.4,3.5v5.6
	c-5.4,1.1-13.8,3.6-22.4,9.4c-5.4,3.6-9.3,7.6-12.1,10.8c-0.3,6.5-0.5,13.1-0.8,19.6c1.3,1.4,2.6,2.8,3.9,4.2c0,1.4,0,2.7,0,4.1
	c-7,0-14,0-21.1,0L343,521c-11.9-1.4-23.9-2.8-35.8-4.2c-5.5,1.4-11,2.9-16.4,4.3V509h-1.3v-14.7h-2.4c0.1-6.1,0.2-12.2,0.2-18.3
	c-6.3-4.5-12.7-9-19-13.6c-6.4,3.5-12.7,6.9-19.1,10.4c-0.4,6.2-0.7,12.4-1.1,18.6h-2.9v6h-1.1v8.3h-3.4v8.2h-4.8
	c-0.7,5.2-1.4,10.3-2.2,15.5c-2.7-0.4-5.5-0.8-8.2-1.2v-4.8c-1.1-0.8-2.2-1.5-3.3-2.3H209c-0.2,4.7-0.4,9.4-0.6,14.1
	c-8.7,0.2-17.5,0.5-26.2,0.7v-7.8h-10c-0.2,2.4-0.4,4.8-0.6,7.2l-14.9-1.9c0.8-9.1,1.6-18.2,2.3-27.3h-31v10.7h-6.6l-1-9.9h-16.8
	V493H77c-0.3,2.6-0.7,5.3-1.1,7.9h-4.8c-3.6-1.6-7.2-3.3-10.8-4.9v-15c-9.8-4.2-19.6-8.5-29.4-12.7c-10.3,0.2-20.6,0.5-30.9,0.7
	 M789.9,337.8c-0.3-3.9-1.5-19.3,3.1-38.6c5.6-23.7,16.7-40,22.1-47.8c0.6-0.9,0.8-1.1,10-12.9c18.1-23.3,27.2-35,30-38.6
	c8.1-10.4,19.4-25.4,33.1-44.6c-3.4,7.1-9.2,18.8-17.7,32.6c-19.5,31.9-31.8,40.8-49.2,70.6c-9,15.3-15.5,26.5-20.1,42.1
	c-9.8,33.5-3.6,63.7,1.9,81.6C798.4,373.3,791.7,358,789.9,337.8z M680.12,177.53"/>
</svg>
