<?xml version="1.0" encoding="utf-8"?>
<!-- Generator: Adobe Illustrator 25.4.1, SVG Export Plug-In . SVG Version: 6.00 Build 0)  -->
<svg version="1.1" id="Ebene_1" xmlns="http://www.w3.org/2000/svg" xmlns:xlink="http://www.w3.org/1999/xlink" x="0px" y="0px"
	 viewBox="0 0 635.94 395.21" style="enable-background:new 0 0 635.94 395.21;" xml:space="preserve">
<style type="text/css">
	.st0{clip-path:url(#SVGID_00000139282627727125213690000007985141826112590748_);}
	.st1{clip-path:url(#SVGID_00000071542081149316551330000003710637604006329753_);}
	.st2{clip-path:url(#SVGID_00000040532994714291678970000016876627480149577383_);fill:#29ABE2;}
	.st3{opacity:0.63;clip-path:url(#SVGID_00000040532994714291678970000016876627480149577383_);}
	.st4{clip-path:url(#SVGID_00000133524901656547180620000003837056005398891419_);fill:#A6D3FF;}
	.st5{clip-path:url(#SVGID_00000037663958120835812940000017366046226487837100_);fill:#0071BC;}
	.st6{clip-path:url(#SVGID_00000040532994714291678970000016876627480149577383_);fill:#FBB03B;}
	.st7{opacity:0.67;clip-path:url(#SVGID_00000040532994714291678970000016876627480149577383_);}
	.st8{clip-path:url(#SVGID_00000076575409994947254230000002018669968270483887_);fill:#EF8200;}
	.st9{clip-path:url(#SVGID_00000111179609117809974940000003320541354463272089_);fill:#EF8200;}
	.st10{opacity:0.18;clip-path:url(#SVGID_00000040532994714291678970000016876627480149577383_);}
	.st11{clip-path:url(#SVGID_00000152981493414334204210000003779771762590043548_);}
	.st12{opacity:0.21;clip-path:url(#SVGID_00000040532994714291678970000016876627480149577383_);}
	.st13{clip-path:url(#SVGID_00000154388602495404185580000016685925665356858556_);fill:#F2F2F2;}
	.st14{clip-path:url(#SVGID_00000003065331713914862750000016110922663539118764_);fill:#A6D3FF;}
	.st15{clip-path:url(#SVGID_00000040532994714291678970000016876627480149577383_);fill:#0071BC;}
	.st16{clip-path:url(#SVGID_00000040532994714291678970000016876627480149577383_);fill:#E89C38;}
	.st17{clip-path:url(#SVGID_00000065047657834862823670000016187746645712952463_);fill:#FFD150;}
	.st18{clip-path:url(#SVGID_00000051346298955110138170000015898468926922203314_);fill:#EF8200;}
	.st19{clip-path:url(#SVGID_00000067223946715394635430000018171342205547533457_);fill:#A6D3FF;}
	.st20{fill:#FFFFFF;}
</style>
<g id="Vektor-Smartobjekt_00000103984534596834789090000009985364563509020075_">
	<g>
		<defs>
			<rect id="SVGID_1_" x="238.47" y="9.61" width="155.1" height="221"/>
		</defs>
		<clipPath id="SVGID_00000145051229993085462390000016025752592784652420_">
			<use xlink:href="#SVGID_1_"  style="overflow:visible;"/>
		</clipPath>
		<g style="clip-path:url(#SVGID_00000145051229993085462390000016025752592784652420_);">
			<defs>
				<rect id="SVGID_00000168819189107933564970000014068067086262831037_" x="238.47" y="9.61" width="155.1" height="221"/>
			</defs>
			<clipPath id="SVGID_00000065037365271750518220000012503192283543221141_">
				<use xlink:href="#SVGID_00000168819189107933564970000014068067086262831037_"  style="overflow:visible;"/>
			</clipPath>
			<g style="clip-path:url(#SVGID_00000065037365271750518220000012503192283543221141_);">
				<defs>
					<rect id="SVGID_00000013172048829251208380000003750769001371429777_" x="238.47" y="9.61" width="155.1" height="221"/>
				</defs>
				<clipPath id="SVGID_00000072257094320664037090000010223151831640270510_">
					<use xlink:href="#SVGID_00000013172048829251208380000003750769001371429777_"  style="overflow:visible;"/>
				</clipPath>
				<path style="clip-path:url(#SVGID_00000072257094320664037090000010223151831640270510_);fill:#29ABE2;" d="M307.48,202.4
					c-3.49,6.54,2.78,16.61,7.8,21.58c3.76,3.73,7.86,5.63,10.64,6.62c1.94-1.45,4.38-3.58,6.72-6.57c1.91-2.45,3.24-4.81,4.14-6.75
					c1.67-2.58,5.17-8.73,2.77-13.86c0,0-0.28-0.61-0.66-1.15C334.56,196,312.45,193.07,307.48,202.4"/>
				<path style="clip-path:url(#SVGID_00000072257094320664037090000010223151831640270510_);fill:#29ABE2;" d="M300.01,103.57
					c-0.17,2.9-0.23,4.29-0.28,4.9c-0.39,4.61-1.35,11.6-3.94,19.58c-0.71,2.19-1.38,3.95-1.81,5.05
					c-3.35,4.09-6.7,8.18-10.06,12.26c1,2.37,2.07,4.78,3.21,7.24c2.85,6.09,5.84,11.71,8.85,16.85c3.93,0.89,8.2,1.69,12.78,2.33
					c5.39,0.75,10.43,1.17,15.06,1.37c2.15-0.2,4.3-0.41,6.45-0.61c2.59-0.71,5.18-1.42,7.77-2.13c2.08-0.27,4.16-0.54,6.24-0.82
					c1.35-1.11,2.7-2.21,4.06-3.32c5.27-7.28,10.55-14.56,15.83-21.84c-1.22-0.1-2.73-0.13-4.44,0.07c-1.97,0.23-3.62,0.7-4.88,1.15
					c0.46-5.02,0.92-10.04,1.37-15.06c-1.89,0.61-3.78,1.23-5.67,1.84c-0.11-7.64-0.21-15.29-0.32-22.93
					c-3.69,3.57-7.37,7.15-11.06,10.72c-2.63-9.91-5.25-19.82-7.88-29.74c-3.27,1.98-8.36,4.56-15.03,6.05
					c-6.53,1.46-12.11,1.34-15.88,0.96C300.3,98.88,300.17,100.99,300.01,103.57"/>
				<g style="opacity:0.63;clip-path:url(#SVGID_00000072257094320664037090000010223151831640270510_);">
					<g>
						<defs>
							<rect id="SVGID_00000000935140939611907330000012254079048563027384_" x="325.93" y="205.33" width="15.09" height="25.27"/>
						</defs>
						<clipPath id="SVGID_00000102508515081575734950000002408558983277306759_">
							<use xlink:href="#SVGID_00000000935140939611907330000012254079048563027384_"  style="overflow:visible;"/>
						</clipPath>
						<path style="clip-path:url(#SVGID_00000102508515081575734950000002408558983277306759_);fill:#A6D3FF;" d="M325.93,230.61
							c1.87-2.8,4.32-7.21,5.72-13.08c1.01-4.22,1.18-7.94,1.08-10.76c2.76-0.48,5.52-0.95,8.29-1.43
							c-0.38,2.95-1.27,7.03-3.43,11.45C334.03,224.09,328.87,228.47,325.93,230.61"/>
					</g>
				</g>
				<g style="opacity:0.63;clip-path:url(#SVGID_00000072257094320664037090000010223151831640270510_);">
					<g>
						<defs>
							<rect id="SVGID_00000091016892165470102460000012658459690344151725_" x="306.27" y="203.52" width="19.66" height="27.09"/>
						</defs>
						<clipPath id="SVGID_00000125598444837172811480000008966111850034002848_">
							<use xlink:href="#SVGID_00000091016892165470102460000012658459690344151725_"  style="overflow:visible;"/>
						</clipPath>
						<path style="clip-path:url(#SVGID_00000125598444837172811480000008966111850034002848_);fill:#0071BC;" d="M313.8,204.81
							c3.07,2.41,1.96,6.97,3.45,12.56c0.91,3.4,3.04,8.17,8.68,13.23c-1.09-0.38-2.55-0.97-4.18-1.85
							c-1.66-0.9-6.47-3.7-10.48-9.43c-1.67-2.39-4.14-6-4.82-11.26c-0.22-1.7-0.2-3.14-0.13-4.16
							C308.47,203.42,311.6,203.09,313.8,204.81"/>
					</g>
				</g>
				<path style="clip-path:url(#SVGID_00000072257094320664037090000010223151831640270510_);fill:#FBB03B;" d="M304.88,174.88
					c-1.05,2.02,4.02,7.1,5.42,12.93c0.19,0.8,0.44,2.13,0.12,3.7c-0.32,1.59-1.05,2.54-1.72,3.58c-1.34,2.09-3.69,5.73-3.16,8.66
					c0.37,2.05,2.08,3.33,3.41,4.29c7.95,5.76,18.77,2.76,29.58-0.25c0.48-0.13,1.5-0.43,2.31-1.32c1.51-1.67,1.2-4.22,1.08-5.1
					c-0.4-2.9-1.73-3.36-3.92-7.65c-1.52-2.97-2.51-4.92-2.45-7.55c0.06-2.61,1.13-4.67,1.89-6.16c2-3.89,4.06-4.79,3.7-5.67
					c-0.7-1.73-8.63,1.81-19.33,1.67C312.17,175.88,305.93,172.85,304.88,174.88"/>
				<g style="opacity:0.67;clip-path:url(#SVGID_00000072257094320664037090000010223151831640270510_);">
					<g>
						<defs>
							<rect id="SVGID_00000125591963610270126580000017621024551661228444_" x="310.25" y="185.72" width="25.31" height="3.36"/>
						</defs>
						<clipPath id="SVGID_00000071523526215980333480000010710510393511560635_">
							<use xlink:href="#SVGID_00000125591963610270126580000017621024551661228444_"  style="overflow:visible;"/>
						</clipPath>
						<path style="clip-path:url(#SVGID_00000071523526215980333480000010710510393511560635_);fill:#EF8200;" d="M310.25,187.59
							c3.61,0.55,8.32,0.92,13.79,0.42c4.55-0.42,8.44-1.33,11.52-2.28c-0.01,0.14-0.02,0.28-0.02,0.43c0,0.19,0,0.37,0,0.54
							c-3.31,0.93-7.43,1.79-12.2,2.18c-4.99,0.41-9.36,0.18-12.87-0.24c-0.03-0.16-0.06-0.33-0.09-0.5
							C310.34,187.95,310.29,187.76,310.25,187.59"/>
					</g>
				</g>
				<g style="opacity:0.67;clip-path:url(#SVGID_00000072257094320664037090000010223151831640270510_);">
					<g>
						<defs>
							<rect id="SVGID_00000153694413674339007920000000350980995477616830_" x="310.55" y="187.76" width="25.28" height="3.33"/>
						</defs>
						<clipPath id="SVGID_00000093157845721630620920000005709354921572825782_">
							<use xlink:href="#SVGID_00000153694413674339007920000000350980995477616830_"  style="overflow:visible;"/>
						</clipPath>
						<path style="clip-path:url(#SVGID_00000093157845721630620920000005709354921572825782_);fill:#EF8200;" d="M310.57,189.6
							c3.57,0.55,8.25,0.91,13.67,0.41c4.5-0.41,8.34-1.32,11.4-2.26c0.02,0.14,0.05,0.29,0.08,0.44c0.04,0.18,0.07,0.35,0.12,0.51
							c-3.33,0.93-7.47,1.8-12.28,2.18c-5.04,0.4-9.45,0.16-13-0.27c0.01-0.14,0.02-0.29,0.03-0.44
							C310.58,189.97,310.58,189.78,310.57,189.6"/>
					</g>
				</g>
				<g style="opacity:0.18;clip-path:url(#SVGID_00000072257094320664037090000010223151831640270510_);">
					<g>
						<defs>
							<rect id="SVGID_00000070815356814936215020000010081689932853206420_" x="305.5" y="179.11" width="10.93" height="31.9"/>
						</defs>
						<clipPath id="SVGID_00000065788276878880263880000009998794925621960110_">
							<use xlink:href="#SVGID_00000070815356814936215020000010081689932853206420_"  style="overflow:visible;"/>
						</clipPath>
						<path style="clip-path:url(#SVGID_00000065788276878880263880000009998794925621960110_);" d="M312.95,179.35
							c2.46,3.32,3.14,6.18,3.36,7.95c0.62,5.03-1.37,10.58-1.97,12.26c-0.88,2.45-1.57,3.53-1.39,5.47
							c0.24,2.62,1.88,4.64,3.3,5.98c-1.74-0.23-3.09-0.67-3.99-1.04c-2.92-1.17-6.06-3.44-6.59-5.72
							c-0.27-1.14-0.14-2.26-0.14-2.26c0.03-0.22,0.09-0.65,0.33-1.43c0.12-0.39,0.54-1.66,1.53-3.38c0.34-0.59,0.91-1.51,1.52-2.42
							c0.21-0.32,0.38-0.55,0.59-0.92c0.1-0.18,0.58-1.04,0.85-1.92c0.52-1.73,0.14-3.34-0.11-4.39c-0.21-0.91-0.49-1.59-0.66-2.01
							c-0.57-1.38-1.59-3.56-3.36-6.41C308.46,179.19,310.7,179.27,312.95,179.35"/>
					</g>
				</g>
				<g style="opacity:0.21;clip-path:url(#SVGID_00000072257094320664037090000010223151831640270510_);">
					<g>
						<defs>
							<rect id="SVGID_00000018945747592831649580000010232337990069588410_" x="329.27" y="173.59" width="12.78" height="35.77"/>
						</defs>
						<clipPath id="SVGID_00000013191667425310416490000004639735305700728204_">
							<use xlink:href="#SVGID_00000018945747592831649580000010232337990069588410_"  style="overflow:visible;"/>
						</clipPath>
						<path style="clip-path:url(#SVGID_00000013191667425310416490000004639735305700728204_);fill:#F2F2F2;" d="M332.74,209.36
							c2.88-0.79,4.94-1.35,5.72-1.54c0.11-0.03,0.42-0.1,0.81-0.27c0.24-0.1,0.71-0.3,1.18-0.7c0.11-0.09,0.62-0.53,1.02-1.3
							c0.4-0.77,0.48-1.45,0.54-2.1c0.13-1.38-0.12-2.46-0.23-2.87c-0.29-1.09-0.75-1.86-1.15-2.52c-0.34-0.57-0.44-0.64-1.03-1.56
							c-0.52-0.81-0.87-1.44-1.11-1.86c-1.07-1.89-1.71-3.35-1.96-3.94c-0.33-0.78-0.5-1.25-0.64-1.76
							c-0.25-0.94-0.31-1.65-0.33-1.85c-0.01-0.08-0.06-0.83,0.02-1.69c0.07-0.7,0.3-2.14,1.27-4.26c0.55-1.2,1.46-2.87,2.94-4.68
							c-1.13-2.3-3.81-3.42-6.22-2.62c-2.38,0.79-3.86,3.23-3.45,5.73c-0.96,3.74-0.94,6.83-0.78,8.85
							c0.36,4.42,1.81,8.15,2.41,9.57c0.78,1.86,1.15,2.21,1.5,3.58C334.03,204.6,333.42,207.41,332.74,209.36"/>
					</g>
				</g>
				<g style="opacity:0.63;clip-path:url(#SVGID_00000072257094320664037090000010223151831640270510_);">
					<g>
						<defs>
							<rect id="SVGID_00000159450675788992610780000009589860442398513592_" x="326.42" y="95.32" width="37.84" height="69.97"/>
						</defs>
						<clipPath id="SVGID_00000120552266686340813870000006248822178262752445_">
							<use xlink:href="#SVGID_00000159450675788992610780000009589860442398513592_"  style="overflow:visible;"/>
						</clipPath>
						<path style="clip-path:url(#SVGID_00000120552266686340813870000006248822178262752445_);fill:#A6D3FF;" d="M332.52,95.32
							c2.22,8.3,4.44,16.6,6.66,24.9c3.69-3.57,7.37-7.15,11.06-10.72c0.11,7.64,0.21,15.29,0.32,22.93
							c1.89-0.61,3.78-1.23,5.67-1.84c-0.46,5.02-0.92,10.04-1.37,15.06c1.25-0.43,2.79-0.85,4.58-1.12
							c1.84-0.28,3.47-0.32,4.82-0.27c-4.03,5.63-8.07,11.25-12.1,16.88c-0.56,0.19-1.13,0.37-1.69,0.56l-2.51,3.58
							c-2.32-0.85-4.64-1.69-6.96-2.54c4.04-3.98,8.08-7.96,12.12-11.94c-1.79-0.06-3.59-0.12-5.38-0.17
							c0.87-3.24,1.74-6.48,2.6-9.72c-1.68,0.93-3.36,1.85-5.03,2.78c-0.23-5.55-0.46-11.11-0.69-16.66
							c-3.07,3.41-6.13,6.82-9.2,10.24c-3-12.59-6-25.18-9-37.77C328.46,98.11,330.49,96.71,332.52,95.32"/>
					</g>
				</g>
				<path style="clip-path:url(#SVGID_00000072257094320664037090000010223151831640270510_);fill:#0071BC;" d="M306.39,101.48
					c-0.28,6.25-0.57,12.5-0.85,18.74c-1.69,4.92-3.38,9.85-5.08,14.77c-2.52,3.67-5.03,7.33-7.55,11
					c4.86,8.17,9.72,16.35,14.59,24.52c-2.37-0.26-4.87-0.61-7.46-1.08c-1.58-0.28-3.11-0.59-4.59-0.92
					c-2.11-3.64-4.24-7.57-6.32-11.78c-1.94-3.93-3.67-7.73-5.2-11.37c3.35-4.09,6.7-8.18,10.06-12.26
					c1.47-3.73,2.91-8.14,4.01-13.17c0.8-3.61,1.3-6.99,1.6-10.04C301.86,107.09,304.12,104.28,306.39,101.48"/>
				<path style="clip-path:url(#SVGID_00000072257094320664037090000010223151831640270510_);fill:#E89C38;" d="M393.38,124.52
					c-1.55-11.34-8.98-20.95-8.98-20.95c-2.67-3.45-5.39-5.92-7.42-7.55l-0.78-4.82c-1.63,0.4-3.26,0.81-4.89,1.21
					c0.16-2.7,0.31-5.41,0.47-8.11c-2.45,1.43-4.89,2.85-7.34,4.28c-0.81-1.56-1.62-3.11-2.42-4.67c-1.82,0.87-3.64,1.74-5.47,2.6
					c-8.66-3.28-26.88-8.81-49.56-5.19c-31.51,5.02-50.73,24.36-56.61,30.78l-5.68,1.48c0.51,1.95,1.01,3.9,1.52,5.86
					c-2.58,0.86-5.16,1.72-7.74,2.58c1.35,2.34,2.7,4.67,4.06,7.01c-1.14,1.25-2.28,2.5-3.43,3.75c1.48,1.37,2.96,2.73,4.43,4.1
					c0.38,2.94,1.24,7.08,3.42,11.54c6.12,12.53,17.99,17.77,27.88,22.29c18.83,8.6,36.85,9.6,48.8,9.05
					c2.42,0.69,4.84,1.37,7.26,2.06c1.74-2.1,3.48-4.2,5.22-6.3l9,3.56c1.49-2,2.98-3.99,4.46-5.99c2.31,0.4,4.63,0.8,6.94,1.2
					l2.16-4.66C382.15,158.68,395.35,138.95,393.38,124.52 M323.1,171.32c-8.6,0.05-29.03-0.6-46.92-9.43
					c-11.5-5.67-15.73-11.65-17.36-14.28c-2.7-4.36-3.87-8.55-4.42-11.39c1.82-0.82,3.64-1.65,5.47-2.47
					c-1.19-1.32-2.38-2.65-3.57-3.97c2.58-0.97,5.16-1.95,7.73-2.92c-1.68-1.84-3.35-3.67-5.03-5.51c1.61-0.57,3.22-1.14,4.83-1.72
					c-0.59-1.41-1.17-2.82-1.76-4.23c5.85-5.93,25.22-24.03,55.25-26.6c15.53-1.33,28.22,1.98,36.02,4.76
					c0.03,1.64,0.06,3.28,0.09,4.92l6.64-2.08c-0.52,2.65-1.04,5.29-1.56,7.94c2.69-1.3,5.38-2.6,8.07-3.9
					c0.48,1.69,0.95,3.38,1.43,5.08c1.65-0.91,3.3-1.82,4.95-2.73c2.67,2.52,10.55,10.6,11.15,22.46
					c0.76,15.21-10.76,30.48-28.82,36.37c-1.63-0.23-3.25-0.45-4.88-0.68c-0.83,1.42-1.67,2.85-2.5,4.27
					c-2.88-1.18-5.76-2.35-8.63-3.53c-1.52,2.49-3.04,4.97-4.56,7.46c-2.04-0.75-4.09-1.5-6.13-2.26
					C326.74,168.36,324.92,169.84,323.1,171.32"/>
				<g style="opacity:0.67;clip-path:url(#SVGID_00000072257094320664037090000010223151831640270510_);">
					<g>
						<defs>
							<rect id="SVGID_00000016034087054180367800000015729602352787636651_" x="246.81" y="82.23" width="142.98" height="94.66"/>
						</defs>
						<clipPath id="SVGID_00000061432051883810282610000002304300182841245577_">
							<use xlink:href="#SVGID_00000016034087054180367800000015729602352787636651_"  style="overflow:visible;"/>
						</clipPath>
						<path style="clip-path:url(#SVGID_00000061432051883810282610000002304300182841245577_);fill:#FFD150;" d="M383.66,108.64
							c-8.04-13.13-21.02-17.77-30.54-21.17c-25.17-9-47.44-3.9-51.36-2.95c-19.02,4.62-51.3,19.14-54.66,43.38
							c-1.23,8.87,1.79,16.34,2.78,18.57c5.89,13.3,18.69,18.88,28.28,22.9c7.19,3.01,32.54,13.18,62.81,3.3
							c2.37-0.77,47.73-16.14,48.8-44.11C390.13,119.2,385.41,111.5,383.66,108.64 M387.88,128.58
							c-1.04,27.23-45.2,42.19-47.51,42.95c-29.47,9.62-54.15-0.28-61.15-3.21c-9.34-3.91-21.8-9.35-27.54-22.3
							c-0.96-2.16-3.9-9.44-2.7-18.08c3.27-23.6,34.7-37.74,53.21-42.23c3.82-0.93,25.5-5.89,50,2.87
							c9.27,3.31,21.9,7.83,29.73,20.61C383.64,111.97,388.23,119.47,387.88,128.58"/>
					</g>
				</g>
				<g style="opacity:0.67;clip-path:url(#SVGID_00000072257094320664037090000010223151831640270510_);">
					<g>
						<defs>
							<rect id="SVGID_00000072277352499078238680000018400538940935596204_" x="248.7" y="83.48" width="139.2" height="92.16"/>
						</defs>
						<clipPath id="SVGID_00000173161295505622923240000006167538772439116973_">
							<use xlink:href="#SVGID_00000072277352499078238680000018400538940935596204_"  style="overflow:visible;"/>
						</clipPath>
						<path style="clip-path:url(#SVGID_00000173161295505622923240000006167538772439116973_);fill:#EF8200;" d="M381.93,109.19
							c-7.83-12.78-20.46-17.3-29.73-20.61c-24.5-8.76-46.18-3.8-50-2.87c-18.52,4.49-49.94,18.63-53.21,42.23
							c-1.2,8.64,1.74,15.91,2.7,18.08c5.74,12.95,18.19,18.38,27.54,22.3c7,2.93,31.68,12.83,61.15,3.21
							c2.31-0.75,46.47-15.71,47.51-42.95C388.23,119.47,383.64,111.97,381.93,109.19 M386.04,128.61
							c-1.01,26.51-44,41.08-46.25,41.81c-28.69,9.36-52.72-0.27-59.54-3.12c-9.09-3.81-21.22-9.1-26.81-21.71
							c-0.93-2.11-3.8-9.19-2.63-17.6c3.18-22.98,33.78-36.74,51.81-41.12c3.72-0.9,24.82-5.73,48.68,2.8
							c9.03,3.23,21.32,7.62,28.95,20.07C381.91,112.44,386.38,119.74,386.04,128.61"/>
					</g>
				</g>
				<path style="clip-path:url(#SVGID_00000072257094320664037090000010223151831640270510_);fill:#29ABE2;" d="M331.26,95.71
					c0.11-1.31,0.21-2.62,0.32-3.93c-2.62-9.78-5.23-19.56-7.85-29.35c-6.61,3.17-11.99,4.62-14.24,4.47
					c-2.1-0.14-4.12-0.61-6.03-1.36c-1.54,14.62-2.63,25.89-3.15,33.05c5.09-0.39,10.48-0.63,16.15-0.67
					c3.39-0.02,6.68,0.03,9.86,0.15C327.96,97.29,329.61,96.5,331.26,95.71"/>
				<path style="clip-path:url(#SVGID_00000072257094320664037090000010223151831640270510_);fill:#0071BC;" d="M309.6,9.61
					c-1.1,31.54-2.21,63.08-3.31,94.62c-2.17,1.17-4.33,2.33-6.5,3.5c0.14-2.72,0.37-6.74,0.71-11.58c1.17-16.91,2.61-28.94,4-40.86
					C305.69,44.98,307.44,29.62,309.6,9.61"/>
				<path style="clip-path:url(#SVGID_00000072257094320664037090000010223151831640270510_);fill:#FBB03B;" d="M355.14,51.82
					c-7.37-11.74-32.19-9.42-55.45,5.17s-36.13,35.94-28.77,47.68c7.37,11.74,32.19,9.42,55.45-5.17S362.5,63.56,355.14,51.82
					 M323.7,95.47c-18.81,11.8-38.88,13.68-44.84,4.18c-5.96-9.49,4.46-26.76,23.26-38.56c18.81-11.8,38.88-13.68,44.84-4.18
					C352.92,66.4,342.51,83.67,323.7,95.47"/>
				<path style="clip-path:url(#SVGID_00000072257094320664037090000010223151831640270510_);fill:#29ABE2;" d="M309.6,9.61
					c-2.44,21.74-4.53,40.67-6.14,55.94c1.91,0.75,3.93,1.22,6.03,1.36c5.15,0.34,10.06-1.33,14.24-4.47
					C319.02,44.83,314.31,27.22,309.6,9.61"/>
				<path style="clip-path:url(#SVGID_00000072257094320664037090000010223151831640270510_);fill:#0071BC;" d="M309.6,9.61
					c-0.41,18.95-1.05,38.23-1.94,57.83c-0.49,10.69-1.04,21.27-1.65,31.75c-1.68,0.78-3.35,1.56-5.03,2.34
					c0.23-1.76,0.46-3.53,0.69-5.29c-0.07-4.09-0.15-8.17-0.22-12.26c0.99-9.57,2.01-19.13,3.04-28.69
					C306.14,40.05,307.84,24.83,309.6,9.61"/>
				<g style="opacity:0.63;clip-path:url(#SVGID_00000072257094320664037090000010223151831640270510_);">
					<g>
						<defs>
							<rect id="SVGID_00000006675833150512533600000005199799393222873763_" x="309.6" y="9.61" width="21.55" height="84.86"/>
						</defs>
						<clipPath id="SVGID_00000052079953543900810710000009986694128463185846_">
							<use xlink:href="#SVGID_00000006675833150512533600000005199799393222873763_"  style="overflow:visible;"/>
						</clipPath>
						<path style="clip-path:url(#SVGID_00000052079953543900810710000009986694128463185846_);fill:#A6D3FF;" d="M309.6,9.61
							c5.22,28.29,10.44,56.57,15.66,84.86c1.07-0.7,2.16-1.46,3.28-2.29c0.91-0.67,1.78-1.34,2.6-2L309.6,9.61"/>
					</g>
				</g>
			</g>
		</g>
	</g>
</g>
<g>
	<path class="st20" d="M201.99,14.64v5.35c-7.5,0.89-10.88,6.02-10.13,15.39c0.75,9.37,3.75,29.67,9,60.89
		c7.5-33.01,11.72-53.76,12.66-62.23c0.94-8.48-1.41-13.16-7.03-14.05v-5.35h35.45v5.8c-6,0.3-9,2.38-9,6.25l-20.82,96.36
		l19.13,95.91c0,3.57,3.56,5.35,10.69,5.35v6.25h-37.7v-6.25c6.38,0,8.35-6.62,5.91-19.85c-2.44-13.23-5.91-32.94-10.41-59.11
		c-3.75,26.17-6.66,45.8-8.72,58.89c-2.06,13.09,0.47,19.78,7.6,20.07v6.25h-37.14v-5.35c6.38-0.3,9.57-2.23,9.57-5.8l17.44-97.25
		l-17.44-95.47c-0.38-4.16-3.57-6.39-9.57-6.69v-5.35H201.99z"/>
</g>
<g>
	<path class="st20" d="M431.15,25.78l1.29-6.45h27.51v6.45c-6.02-0.29-8.74,3.01-8.17,9.89l-13.32,194.26h-18.91l-20.2-195.55
		c-0.57-4.3-3.87-7.31-9.88-9.03v-6.02h37.82v6.45c-6.02,0.29-8.88,3.44-8.6,9.46L429,159.44l8.6-123.78
		C438.17,29.08,436.02,25.78,431.15,25.78z"/>
</g>
<g>
	<path class="st20" d="M15,356.57v-97.24c-0.81-5.04-3.04-7.56-6.7-7.56l-0.61-3.17h25.88c10.15-0.16,15.32,8.45,15.53,25.83
		l-0.3,77.5c-0.61,10.4-7.71,16-21.31,16.82H7.39l0.3-3.41C12.15,364.69,14.59,361.77,15,356.57z M27.78,333.18v25.1
		c3.25,0,4.87-5.28,4.87-15.84v-64.58c0.61-13.16-1.02-19.17-4.87-18.03V333.18z"/>
	<path class="st20" d="M109.8,368.76v-1.71c2.44-1.95,3.25-8.94,2.44-20.96h-7.61c-1.22,12.02-0.51,19.01,2.13,20.96v1.71H86.96
		v-1.71c1.62-0.16,2.99-0.69,4.11-1.58c1.12-0.89,4.52-39.85,10.2-116.86h15.83c7.51,77.01,11.67,115.97,12.48,116.86
		c0.81,0.89,2.03,1.42,3.65,1.58v1.71H109.8z M105.08,335.61h5.94l-3.04-39.48L105.08,335.61z"/>
	<path class="st20" d="M172.33,247.88h42.62v43.14h-5.17c-1.02-17.38-3.86-27.7-8.52-30.95v99.92c0,3.9,2.23,6.34,6.7,7.31V369
		h-28.31v-1.71c4.87-0.98,7.1-3.49,6.7-7.56v-99.68c-5.07,3.09-8.32,13.4-9.74,30.95h-4.26V247.88z"/>
	<path class="st20" d="M276.87,368.76v-1.71c2.43-1.95,3.25-8.94,2.43-20.96h-7.61c-1.22,12.02-0.51,19.01,2.13,20.96v1.71h-19.79
		v-1.71c1.62-0.16,2.99-0.69,4.11-1.58c1.12-0.89,4.52-39.85,10.2-116.86h15.83c7.51,77.01,11.67,115.97,12.48,116.86
		c0.81,0.89,2.03,1.42,3.65,1.58v1.71H276.87z M272.15,335.61h5.94l-3.04-39.48L272.15,335.61z"/>
	<path class="st20" d="M345.18,356.57v-97.24c-0.81-5.04-3.04-7.56-6.7-7.56l-0.61-3.17h20.09c11.16,1.3,17.66,9.99,19.48,26.08
		c-0.61,15.27-3.55,25.18-8.83,29.73c8.52,6.17,12.08,22.02,10.66,47.52c-0.81,10.4-8.02,16-21.62,16.82h-20.09l0.3-3.41
		C342.34,364.69,344.78,361.77,345.18,356.57z M357.97,296.37c3.45,0,5.17-2.84,5.17-8.53v-17.3c-0.61-6.99-2.33-10.56-5.17-10.72
		V296.37z M357.97,333.18v25.1c3.25,0,4.87-5.28,4.87-15.84v-16.82c-0.2-7.31-1.83-10.91-4.87-10.78V333.18z"/>
	<path class="st20" d="M439.99,368.76v-1.71c2.43-1.95,3.25-8.94,2.43-20.96h-7.61c-1.22,12.02-0.51,19.01,2.13,20.96v1.71h-19.79
		v-1.71c1.62-0.16,2.99-0.69,4.11-1.58c1.12-0.89,4.52-39.85,10.2-116.86h15.83c7.51,77.01,11.67,115.97,12.48,116.86
		c0.81,0.89,2.03,1.42,3.65,1.58v1.71H439.99z M435.27,335.61h5.94l-3.04-39.48L435.27,335.61z"/>
	<path class="st20" d="M500.99,326.35l16.44-6.82c-2.03,25.35-1.47,38.67,1.67,39.97c3.14,1.3,4.92,0.65,5.33-1.95
		c1.83-9.75,1.83-19.58,0-29.49c-0.61-5.04-1.83-8.61-3.65-10.72c-11.37-14.13-17.86-24.7-19.48-31.68l-0.3-24.13
		c2.23-8.45,8.32-12.67,18.27-12.67c11.16,0.16,17.05,5.85,17.66,17.06l0.91,15.6l-15.22,7.8c0.2-9.75,0.2-18.85,0-27.29
		c0-4.06-1.17-6.13-3.5-6.21c-2.33-0.08-3.5,1.83-3.5,5.73l0.3,24.37c10.35,13.32,17.35,23.56,21.01,30.71
		c3.65,7.15,4.97,17.38,3.96,30.71c-1.02,14.79-7.61,22.1-19.79,21.93c-11.77-0.49-18.47-7.01-20.09-19.56V326.35z"/>
	<path class="st20" d="M585.44,255.68c0-2.6-1.83-4.39-5.48-5.36v-1.71h46.58v39.97h-4.26c-1.42-12.67-3.65-21.32-6.7-25.95
		c-3.04-4.63-7.61-7.03-13.7-7.19v41.43c5.48,1.46,8.52-4.55,9.13-18.03h3.65v49.96h-4.26c0-13.16-2.84-20.23-8.52-21.2v54.35
		c4.87,0,9.29-2.56,13.24-7.68c3.96-5.12,6.34-14.17,7.15-27.17h3.96v41.43h-45.36v-2.44c3.25,0.16,4.77-1.95,4.57-6.34V255.68z"/>
</g>
</svg>
